<svg version="1.1" width="35" height="35" viewBox="2 2 21 21" xmlns="http://www.w3.org/2000/svg">
  <path fill="#FFF" d="M2.78,22.13H7.1V9.14H2.78V22.13z M4.97,2.88C3.73,2.75,2.62,3.66,2.5,4.89C2.37,6.13,3.27,7.24,4.51,7.36
    c0.14,0.01,0.27,0.01,0.4,0c1.24,0.11,2.34-0.8,2.45-2.04c0.11-1.24-0.8-2.34-2.04-2.45c-0.14-0.01-0.27-0.01-0.41,0H4.97z
    M22.67,14.69v7.45h-4.32v-6.95c0-1.75-0.62-2.94-2.18-2.94c-0.99,0.01-1.87,0.65-2.2,1.58c-0.12,0.34-0.16,0.7-0.15,1.05v7.25H9.48
    c0,0,0.06-11.77,0-12.99h4.32v1.83c0.8-1.38,2.3-2.19,3.89-2.13C20.54,8.85,22.67,10.68,22.67,14.69"/>
</svg>