<svg width="40" height="40" viewBox="0 0 40 40" fill="none" xmlns="http://www.w3.org/2000/svg">
<path fill-rule="evenodd" clip-rule="evenodd" d="M2.39999 17.5499L36.0167 4.43327C36.3333 4.3166 36.7 4.28327 37.0167 4.3666C37.95 4.58327 38.55 5.5166 38.3333 6.44994L32.5333 33.8499C32.4833 34.0999 32.3667 34.3333 32.2167 34.5499C31.6333 35.3499 30.5 35.5333 29.7 34.9333L21.0333 28.5666L16.6167 33.0833C16.45 33.2499 16.2333 33.3833 16.0167 33.4499C15.2333 33.6999 14.4167 33.2666 14.1667 32.4999L11.0333 22.3833L2.49999 19.8666C2.13332 19.7666 1.83332 19.4833 1.68332 19.1166C1.44999 18.4833 1.76666 17.7833 2.39999 17.5499ZM16.0833 24.35L31.75 10.5333C31.8167 10.4333 31.85 10.3 31.8 10.1833C31.7333 9.96665 31.5167 9.83331 31.3 9.88331L12.9333 21.3166C12.5833 21.4833 12.4 21.8833 12.5167 22.2666L14.8667 30.2166C14.8833 30.2666 14.9333 30.3166 14.9833 30.3333C15.0833 30.3666 15.1667 30.3166 15.2 30.2166L15.8 24.8833C15.8333 24.6833 15.9333 24.4833 16.0833 24.35Z" fill="white"/>
</svg>
