<svg width="40" height="40" viewBox="0 0 40 40" fill="none" xmlns="http://www.w3.org/2000/svg">
<path d="M37.7833 8.55119C36.9666 8.90119 36.1333 9.18453 35.2666 9.40119C36.2333 8.46786 36.95 7.30119 37.35 6.01786C37.4 5.78453 37.2666 5.56786 37.0333 5.50119C36.9333 5.48453 36.8333 5.48453 36.7333 5.53453C35.5333 6.25119 34.2333 6.78453 32.8666 7.11786C32.7833 7.13453 32.7 7.13453 32.6333 7.11786C32.3833 7.11786 32.15 7.03453 31.95 6.86786C30.5 5.63453 28.6333 4.96786 26.7166 5.00119C25.8833 5.01786 25.0666 5.15119 24.2666 5.38453C21.7166 6.16786 19.7333 8.23453 19.0833 10.8345C18.85 11.7845 18.7833 12.7679 18.9 13.7345C18.9333 13.8012 18.9333 13.8845 18.9 13.9512C18.85 14.0179 18.7666 14.0512 18.6833 14.0512C13.0833 13.6012 7.91665 10.8845 4.36665 6.53453C4.21665 6.33453 3.94998 6.30119 3.76665 6.45119C3.73331 6.46786 3.71665 6.50119 3.68332 6.53453C2.99998 7.73453 2.63332 9.10119 2.61665 10.5012C2.59998 12.6345 3.44998 14.6679 4.96665 16.1679C4.33332 16.0345 3.73331 15.8012 3.18331 15.4679C2.98331 15.3512 2.71665 15.4345 2.59998 15.6345C2.54998 15.7179 2.53332 15.8012 2.54998 15.8845C2.51665 19.0012 4.31665 21.8512 7.14998 23.1679H6.99998C6.56665 23.1512 6.13332 23.0845 5.71665 22.9845C5.49998 22.9512 5.28332 23.0845 5.24998 23.3179C5.23332 23.3845 5.24998 23.4512 5.26665 23.5179C6.16665 26.3179 8.54998 28.4012 11.45 28.9012C9.04998 30.5179 6.21665 31.3679 3.31665 31.3679H2.33332C1.99998 31.3512 1.71665 31.6179 1.69998 31.9512C1.69998 32.1845 1.81665 32.4179 2.03332 32.5179C5.34998 34.4512 9.13332 35.4679 12.9666 35.4512C16.1666 35.4845 19.3333 34.8179 22.25 33.4845C24.8333 32.2845 27.1166 30.5512 29 28.4179C30.8 26.3679 32.2166 24.0012 33.1666 21.4512C34.0833 19.0179 34.5666 16.4345 34.5833 13.8179V13.6512C34.5833 13.2345 34.7666 12.8512 35.0833 12.6012C36.2833 11.6345 37.3333 10.5012 38.2 9.21786C38.3333 9.03453 38.3 8.78453 38.1333 8.65119C38.0166 8.55119 37.8333 8.53453 37.7 8.61786L37.7833 8.55119Z" fill="white"/>
</svg>
